<?xml version="1.0" standalone="no"?>
<!DOCTYPE svg PUBLIC "-//W3C//DTD SVG 20010904//EN"
 "http://www.w3.org/TR/2001/REC-SVG-20010904/DTD/svg10.dtd">
<svg version="1.0" xmlns="http://www.w3.org/2000/svg"
 width="645.000000pt" height="550.000000pt" viewBox="0 0 645.000000 550.000000"
 preserveAspectRatio="xMidYMid meet">

<g transform="translate(0.000000,550.000000) scale(0.100000,-0.100000)"
fill="#000000" stroke="none">
<path d="M0 2750 l0 -2750 3225 0 3225 0 0 2750 0 2750 -3225 0 -3225 0 0
-2750z m2675 2280 c0 -8 -8 -16 -17 -18 -13 -2 -18 3 -18 18 0 15 5 20 18 18
9 -2 17 -10 17 -18z m1049 -11 c-8 -14 -34 -11 -34 4 0 8 3 17 7 20 9 9 34
-13 27 -24z m-44 -208 c0 -11 -4 -22 -8 -25 -14 -9 -35 12 -29 28 9 23 37 20
37 -3z m-235 -232 c338 -29 621 -105 1020 -274 88 -37 182 -75 209 -85 28 -9
51 -21 53 -26 2 -5 -567 -9 -1431 -9 l-1434 0 -44 -30 c-71 -51 -88 -93 -95
-242 l-6 -128 -52 -105 c-87 -175 -144 -343 -176 -520 -6 -36 -15 -213 -19
-395 -5 -235 -11 -340 -20 -365 -32 -84 -95 -148 -171 -171 -50 -16 -385 -24
-434 -10 -63 17 -85 43 -85 101 0 27 4 60 9 74 10 24 12 24 86 19 106 -8 155
22 125 78 -11 19 -17 20 -69 14 -56 -6 -59 -6 -84 25 -32 37 -34 65 -8 103 74
113 229 68 303 -88 15 -33 28 -67 28 -75 0 -22 36 -72 62 -86 86 -48 149 36
99 134 -29 58 -56 78 -86 64 -13 -6 -26 -8 -29 -3 -12 19 -27 275 -21 361 27
406 129 694 351 997 175 237 379 369 769 496 282 93 458 129 740 151 96 7 300
5 410 -5z m-440 -483 c19 -8 44 -30 55 -48 20 -32 20 -46 18 -335 l-3 -303
-26 -25 c-14 -15 -43 -30 -65 -35 -21 -5 -272 -10 -557 -10 -571 0 -568 0
-607 62 -20 32 -21 45 -18 323 3 318 7 337 66 369 40 22 1085 23 1137 2z
m1213 -331 c3 -386 2 -396 -67 -416 -23 -6 -187 -9 -466 -7 -412 3 -431 4
-457 23 -51 37 -53 56 -51 364 3 268 4 285 24 317 40 65 25 64 544 61 l470 -2
3 -340z m520 330 c1 -1 6 -42 10 -91 l7 -88 80 -41 c116 -58 407 -223 439
-249 22 -17 29 -31 30 -62 l1 -39 -250 0 -250 0 -3 22 c-3 22 -8 23 -130 25
l-127 3 0 80 c0 85 -9 110 -57 156 -23 21 -139 82 -178 92 -12 3 -20 13 -20
26 0 25 22 27 97 7 119 -32 233 -136 253 -231 5 -25 12 -31 42 -36 59 -9 66 2
40 57 -74 151 -221 262 -384 289 -36 6 -38 8 -38 45 0 22 5 40 13 43 11 4 419
-3 425 -8z m920 -418 c6 -28 -16 -49 -39 -36 -19 10 -25 39 -12 53 13 13 48 1
51 -17z m-4970 -94 c5 -17 -26 -29 -40 -15 -6 6 -7 15 -3 22 9 14 37 9 43 -7z
m3932 -426 l0 -334 -25 -11 c-14 -7 -30 -12 -35 -12 -6 0 -10 133 -10 345 l0
345 35 0 35 0 0 -333z m134 128 l1 -199 25 -8 c14 -4 102 -23 195 -43 94 -20
235 -56 315 -80 80 -23 180 -51 222 -61 57 -13 79 -23 84 -36 8 -27 -10 -44
-62 -57 -72 -18 -122 -44 -128 -64 -9 -37 4 -46 67 -49 57 -3 63 -5 75 -31 26
-54 18 -57 -152 -57 l-155 0 -16 31 c-23 44 -124 141 -178 172 -102 56 -143
66 -252 57 -55 -4 -102 -6 -104 -4 -6 5 -7 625 -1 630 2 3 17 4 33 2 l29 -3 2
-200z m423 163 c6 -7 32 -76 58 -153 27 -77 55 -148 64 -158 9 -10 61 -40 116
-66 77 -37 106 -56 122 -82 12 -18 21 -35 20 -36 -3 -2 -289 75 -292 79 -1 2
-26 77 -54 168 -29 91 -57 178 -62 194 -5 16 -9 37 -9 47 0 22 23 25 37 7z
m-2139 -242 l37 -34 3 -273 c3 -294 1 -307 -49 -355 l-30 -29 -560 -3 -559 -2
-37 34 -38 34 0 289 c0 263 2 291 18 317 37 55 35 55 630 56 l547 0 38 -34z
m1123 18 c55 -28 60 -55 59 -360 -1 -281 -6 -326 -40 -344 -12 -6 -189 -10
-455 -10 -471 0 -463 -1 -515 55 l-25 27 -3 276 c-2 264 -1 279 18 310 37 61
42 61 508 62 365 0 427 -2 453 -16z m793 -18 c15 -24 -18 -50 -45 -35 -24 12
-24 35 -1 48 21 13 33 10 46 -13z m-3262 -313 c10 -9 18 -24 18 -34 0 -22 -32
-41 -54 -33 -19 7 -21 49 -3 69 16 18 17 18 39 -2z m-847 -48 c0 -33 -25 -45
-50 -25 -18 15 -19 46 -2 54 31 13 52 1 52 -29z m4026 -55 c180 -34 332 -193
372 -389 19 -91 15 -103 -32 -99 l-36 3 -7 59 c-20 155 -130 290 -273 331 -95
28 -187 17 -290 -34 -54 -27 -96 -56 -118 -82 -38 -43 -74 -144 -80 -219 -4
-42 -6 -45 -33 -45 -27 0 -29 3 -32 40 -5 58 25 173 59 227 50 79 95 117 182
158 117 55 192 68 288 50z m942 -192 c18 -21 22 -64 9 -86 -5 -7 -23 -17 -41
-22 -28 -8 -36 -6 -57 15 -32 32 -31 70 3 101 30 27 57 25 86 -8z m-931 -87
c96 -66 118 -204 46 -287 -43 -48 -78 -64 -144 -64 -70 0 -123 28 -161 84 -62
95 -33 211 72 278 43 27 139 21 187 -11z m673 -1 c3 -5 -2 -16 -11 -24 -23
-23 -229 -23 -238 0 -3 9 -3 20 0 25 7 12 242 10 249 -1z m-2703 -125 c71 -29
128 -121 128 -204 -1 -117 -97 -211 -215 -211 -83 0 -149 40 -187 114 -57 111
-18 244 87 299 38 21 141 22 187 2z m2828 -31 c11 -12 11 -18 -1 -30 -13 -12
-42 -13 -177 -8 -161 7 -162 7 -162 31 l0 23 164 0 c136 0 166 -3 176 -16z
m-3295 -119 c0 -20 -7 -20 -360 -20 l-360 0 -3 23 -3 22 363 -2 c355 -3 363
-3 363 -23z m2023 3 l-3 -23 -662 -3 -663 -2 0 25 0 25 666 0 665 0 -3 -22z
m-1917 -158 c19 -25 72 -112 137 -228 113 -200 341 -346 587 -377 128 -16 342
37 472 116 158 96 253 223 337 452 l18 47 54 0 c61 0 57 11 33 -95 -30 -127
-100 -272 -173 -358 -183 -215 -459 -331 -746 -314 -345 21 -686 277 -785 590
l-23 72 -794 5 c-436 3 -794 6 -795 8 -2 1 -3 24 -3 52 l0 50 753 2 c413 2
787 3 830 3 71 0 80 -2 98 -25z m1402 -12 c-7 -117 -145 -279 -298 -352 -208
-99 -449 -86 -611 34 -83 62 -95 135 -27 161 23 9 34 7 63 -9 137 -80 203
-102 298 -102 63 0 162 25 220 54 63 33 132 93 132 117 0 18 -10 19 -269 19
l-269 0 -31 26 c-32 27 -40 61 -19 82 9 9 110 12 413 10 l400 -3 -2 -37z
m1887 -23 l0 -55 -721 0 -721 0 -17 -21 c-21 -26 -54 -19 -77 17 -19 28 -13
60 16 92 l21 22 749 0 750 0 0 -55z m-4765 -240 c30 -30 31 -54 4 -89 -26 -33
-62 -34 -94 -1 -37 36 -28 86 18 105 35 14 46 12 72 -15z m4676 -1 c27 -24 25
-79 -3 -98 -48 -34 -108 -7 -108 48 0 67 61 95 111 50z m-3712 -53 c8 -14 7
-22 -4 -31 -19 -16 -45 -6 -45 18 0 36 33 45 49 13z m2708 -131 c41 0 42 -10
7 -122 -121 -388 -477 -728 -904 -865 -348 -111 -700 -107 -1057 12 -214 71
-395 185 -559 349 -152 153 -259 320 -320 499 -37 110 -39 107 65 107 49 0
102 3 119 6 31 6 32 5 66 -69 50 -111 115 -206 203 -298 362 -379 907 -512
1410 -344 190 64 359 166 511 309 131 124 217 249 257 375 l18 54 75 -7 c41
-3 90 -6 109 -6z m391 -157 c-2 -10 -10 -18 -18 -18 -8 0 -16 8 -18 18 -2 12
3 17 18 17 15 0 20 -5 18 -17z m-648 -688 c17 -20 5 -45 -20 -45 -23 0 -35 22
-26 45 7 19 30 19 46 0z m-2127 -46 c15 -24 1 -49 -27 -49 -31 0 -40 14 -32
46 8 29 42 30 59 3z"/>
<path d="M2006 3948 c-23 -32 -20 -65 9 -93 63 -63 160 18 105 88 -28 36 -91
38 -114 5z"/>
<path d="M2022 3104 c-29 -20 -29 -67 0 -94 45 -42 128 -13 128 45 0 55 -77
85 -128 49z"/>
<path d="M4723 2460 c-63 -38 -82 -99 -54 -168 46 -111 222 -85 238 36 8 58
-12 98 -62 127 -50 30 -80 31 -122 5z"/>
<path d="M2694 2316 c-45 -20 -74 -73 -74 -135 0 -46 4 -55 43 -96 40 -41 47
-45 93 -45 87 0 154 63 154 145 0 106 -114 175 -216 131z"/>
</g>
</svg>
