<svg width="89" height="94" viewBox="0 0 89 94" fill="none" xmlns="http://www.w3.org/2000/svg">
<path d="M86.8293 0H2.17073C0.97187 0 0 3.18424 0 7.1122V86.7688C0 90.6967 0.97187 93.881 2.17073 93.881H86.8293C88.0281 93.881 89 90.6967 89 86.7688V7.1122C89 3.18424 88.0281 0 86.8293 0Z" fill="#15284F"/>
<path d="M63.3139 70.3208L59.2 66.2069C61.1576 62.6346 62.2221 58.7795 62.2221 54.8305V54.396H64.4056V52.2124H62.2221V42.3864C62.2221 41.7837 61.7341 41.2946 61.1303 41.2946H53.4878V34.7439C53.4878 34.1412 52.9998 33.6521 52.396 33.6521H49.1207V30.3768C49.1207 21.3466 41.7741 14 32.7439 14C23.7138 14 16.3671 21.3466 16.3671 30.3768V33.6521H13.0918C12.488 33.6521 12 34.1412 12 34.7439V42.3864V47.8453V53.3042V58.7632V64.2221V67.4974C12 70.5075 14.4489 72.9563 17.4589 72.9563H35.4352C37.8884 75.391 40.8428 77.5659 44.2404 79.3782C44.4009 79.4645 44.5767 79.5071 44.7535 79.5071C44.9304 79.5071 45.1062 79.4645 45.2678 79.3782C50.778 76.4391 55.1222 72.5491 58.0395 68.1328L61.7701 71.8646H57.8549V74.0481H64.4056C65.0094 74.0481 65.4974 73.559 65.4974 72.9563V66.4056H63.3139V70.3208ZM60.0385 54.8305C60.0385 58.1987 59.1826 61.5024 57.5907 64.5966L55.6888 62.6947C56.8636 60.1061 57.5962 57.3045 57.7971 54.3949H60.0385V54.8305ZM55.6714 52.2124H44.7535C44.3124 52.2124 43.9129 52.4788 43.7447 52.8861C43.5755 53.2944 43.6694 53.7639 43.9816 54.0761L53.038 63.1325C51.147 66.6426 48.3149 69.6341 44.7535 71.7041C38.003 67.7813 33.8357 60.5646 33.8357 52.7267V47.8453H55.6714V52.2124ZM47.3891 54.396H55.6026C55.4268 56.7073 54.8918 58.9466 54.0348 61.0406L47.3891 54.396ZM18.5507 30.3768C18.5507 22.5509 24.918 16.1836 32.7439 16.1836C40.5698 16.1836 46.9371 22.5509 46.9371 30.3768V33.6521H43.6617V30.3768C43.6617 24.3567 38.764 19.4589 32.7439 19.4589C26.7238 19.4589 21.8261 24.3567 21.8261 30.3768V33.6521H18.5507V30.3768ZM41.4782 33.6521H24.0096V30.3768C24.0096 25.5609 27.928 21.6425 32.7439 21.6425C37.5598 21.6425 41.4782 25.5609 41.4782 30.3768V33.6521ZM14.1836 54.396H20.7343V57.6714H14.1836V54.396ZM20.7343 52.2124H14.1836V48.9371H20.7343V52.2124ZM14.1836 59.8549H20.7343V63.1303H14.1836V59.8549ZM20.7343 46.7535H14.1836V43.4782H20.7343V46.7535ZM17.4589 70.7728C15.6531 70.7728 14.1836 69.3032 14.1836 67.4974V65.3139H21.8261C22.4298 65.3139 22.9178 64.8247 22.9178 64.2221V58.7632V53.3042V47.8453V42.3864C22.9178 41.7837 22.4298 41.2946 21.8261 41.2946H14.1836V35.8357H51.3042V41.2946H28.3768C27.773 41.2946 27.285 41.7837 27.285 42.3864V54.8305C27.285 60.5318 29.4849 66.0421 33.4383 70.7728H17.4589ZM44.7535 77.1728C35.1709 71.8798 29.4685 63.5637 29.4685 54.8305V43.4782H60.0385V52.2124H57.8549V46.7535C57.8549 46.1509 57.3669 45.6617 56.7632 45.6617H32.7439C32.1401 45.6617 31.6521 46.1509 31.6521 46.7535V52.7256C31.6521 61.5636 36.4723 69.6832 44.2306 73.9149C44.3932 74.0034 44.5734 74.0481 44.7535 74.0481C44.9337 74.0481 45.1138 74.0034 45.2765 73.9149C49.2626 71.7412 52.4659 68.5357 54.6451 64.7396L56.4596 66.5541C53.8317 70.6854 49.8489 74.3593 44.7535 77.1728Z" fill="url(#paint0_linear_1_17)"/>
<path d="M68.7728 52.2125H66.5892V54.396H68.7728V52.2125Z" fill="url(#paint1_linear_1_17)"/>
<path d="M73.1399 52.2125H70.9564V54.396H73.1399V52.2125Z" fill="url(#paint2_linear_1_17)"/>
<path d="M77.5071 52.2125H75.3235V54.396H77.5071V52.2125Z" fill="url(#paint3_linear_1_17)"/>
<path d="M73.1399 22.7343H70.9564V24.9178H73.1399V22.7343Z" fill="url(#paint4_linear_1_17)"/>
<path d="M77.5071 22.7343H75.3235V24.9178H77.5071V22.7343Z" fill="url(#paint5_linear_1_17)"/>
<path d="M75.3235 33.6521H62.6741L65.1775 31.1487L63.6337 29.6049L59.2666 33.972C58.8397 34.3989 58.8397 35.0889 59.2666 35.5158L63.6337 39.8829L65.1775 38.3391L62.6741 35.8357H75.3235V33.6521Z" fill="url(#paint6_linear_1_17)"/>
<path d="M70.6365 40.9747L69.0927 39.4309L64.7255 43.7981C64.2986 44.225 64.2986 44.915 64.7255 45.3419L69.0927 49.709L70.6365 48.1652L68.133 45.6617H77.5071V43.4782H68.133L70.6365 40.9747Z" fill="url(#paint7_linear_1_17)"/>
<path d="M57.0831 28.9651L58.6268 27.4213L56.1234 24.9178H68.7728V22.7343H56.1234L58.6268 20.2308L57.0831 18.687L52.7159 23.0542C52.289 23.4811 52.289 24.1711 52.7159 24.5979L57.0831 28.9651Z" fill="url(#paint8_linear_1_17)"/>
<defs>
<linearGradient id="paint0_linear_1_17" x1="12" y1="14" x2="65.4974" y2="14" gradientUnits="userSpaceOnUse">
<stop stop-color="#00FF8F"/>
<stop offset="1" stop-color="#00A1FF"/>
</linearGradient>
<linearGradient id="paint1_linear_1_17" x1="66.5892" y1="52.2125" x2="68.7728" y2="52.2125" gradientUnits="userSpaceOnUse">
<stop stop-color="#00FF8F"/>
<stop offset="1" stop-color="#00A1FF"/>
</linearGradient>
<linearGradient id="paint2_linear_1_17" x1="70.9564" y1="52.2125" x2="73.1399" y2="52.2125" gradientUnits="userSpaceOnUse">
<stop stop-color="#00FF8F"/>
<stop offset="1" stop-color="#00A1FF"/>
</linearGradient>
<linearGradient id="paint3_linear_1_17" x1="75.3235" y1="52.2125" x2="77.5071" y2="52.2125" gradientUnits="userSpaceOnUse">
<stop stop-color="#00FF8F"/>
<stop offset="1" stop-color="#00A1FF"/>
</linearGradient>
<linearGradient id="paint4_linear_1_17" x1="70.9564" y1="22.7343" x2="73.1399" y2="22.7343" gradientUnits="userSpaceOnUse">
<stop stop-color="#00FF8F"/>
<stop offset="1" stop-color="#00A1FF"/>
</linearGradient>
<linearGradient id="paint5_linear_1_17" x1="75.3235" y1="22.7343" x2="77.5071" y2="22.7343" gradientUnits="userSpaceOnUse">
<stop stop-color="#00FF8F"/>
<stop offset="1" stop-color="#00A1FF"/>
</linearGradient>
<linearGradient id="paint6_linear_1_17" x1="58.9464" y1="29.6049" x2="75.3235" y2="29.6049" gradientUnits="userSpaceOnUse">
<stop stop-color="#00FF8F"/>
<stop offset="1" stop-color="#00A1FF"/>
</linearGradient>
<linearGradient id="paint7_linear_1_17" x1="64.4054" y1="39.4309" x2="77.5071" y2="39.4309" gradientUnits="userSpaceOnUse">
<stop stop-color="#00FF8F"/>
<stop offset="1" stop-color="#00A1FF"/>
</linearGradient>
<linearGradient id="paint8_linear_1_17" x1="52.3958" y1="18.687" x2="68.7728" y2="18.687" gradientUnits="userSpaceOnUse">
<stop stop-color="#00FF8F"/>
<stop offset="1" stop-color="#00A1FF"/>
</linearGradient>
</defs>
</svg>
