<svg width="66" height="66" viewBox="0 0 66 66" fill="none" xmlns="http://www.w3.org/2000/svg">
<path d="M51.3139 56.3208L47.2 52.2069C49.1576 48.6346 50.2221 44.7795 50.2221 40.8305V40.396H52.4056V38.2124H50.2221V28.3864C50.2221 27.7837 49.7341 27.2946 49.1303 27.2946H41.4878V20.7439C41.4878 20.1412 40.9998 19.6521 40.396 19.6521H37.1207V16.3768C37.1207 7.34662 29.7741 0 20.7439 0C11.7138 0 4.36714 7.34662 4.36714 16.3768V19.6521H1.09178C0.488028 19.6521 0 20.1412 0 20.7439V28.3864V33.8453V39.3042V44.7632V50.2221V53.4974C0 56.5075 2.44887 58.9563 5.45892 58.9563H23.4352C25.8884 61.391 28.8428 63.5659 32.2404 65.3782C32.4009 65.4645 32.5767 65.5071 32.7535 65.5071C32.9304 65.5071 33.1062 65.4645 33.2678 65.3782C38.778 62.4391 43.1222 58.5491 46.0395 54.1328L49.7701 57.8646H45.8549V60.0481H52.4056C53.0094 60.0481 53.4974 59.559 53.4974 58.9563V52.4056H51.3139V56.3208ZM48.0385 40.8305C48.0385 44.1987 47.1826 47.5024 45.5907 50.5966L43.6888 48.6947C44.8636 46.1061 45.5962 43.3045 45.7971 40.3949H48.0385V40.8305ZM43.6714 38.2124H32.7535C32.3124 38.2124 31.9129 38.4788 31.7447 38.8861C31.5755 39.2944 31.6694 39.7639 31.9816 40.0761L41.038 49.1325C39.147 52.6426 36.3149 55.6341 32.7535 57.7041C26.003 53.7813 21.8357 46.5646 21.8357 38.7267V33.8453H43.6714V38.2124ZM35.3891 40.396H43.6026C43.4268 42.7073 42.8918 44.9466 42.0348 47.0406L35.3891 40.396ZM6.55071 16.3768C6.55071 8.55085 12.918 2.18357 20.7439 2.18357C28.5698 2.18357 34.9371 8.55085 34.9371 16.3768V19.6521H31.6617V16.3768C31.6617 10.3567 26.764 5.45892 20.7439 5.45892C14.7238 5.45892 9.82606 10.3567 9.82606 16.3768V19.6521H6.55071V16.3768ZM29.4782 19.6521H12.0096V16.3768C12.0096 11.5609 15.928 7.64249 20.7439 7.64249C25.5598 7.64249 29.4782 11.5609 29.4782 16.3768V19.6521ZM2.18357 40.396H8.73427V43.6714H2.18357V40.396ZM8.73427 38.2124H2.18357V34.9371H8.73427V38.2124ZM2.18357 45.8549H8.73427V49.1303H2.18357V45.8549ZM8.73427 32.7535H2.18357V29.4782H8.73427V32.7535ZM5.45892 56.7728C3.65311 56.7728 2.18357 55.3032 2.18357 53.4974V51.3139H9.82606C10.4298 51.3139 10.9178 50.8247 10.9178 50.2221V44.7632V39.3042V33.8453V28.3864C10.9178 27.7837 10.4298 27.2946 9.82606 27.2946H2.18357V21.8357H39.3042V27.2946H16.3768C15.773 27.2946 15.285 27.7837 15.285 28.3864V40.8305C15.285 46.5318 17.4849 52.0421 21.4383 56.7728H5.45892ZM32.7535 63.1728C23.1709 57.8798 17.4685 49.5637 17.4685 40.8305V29.4782H48.0385V38.2124H45.8549V32.7535C45.8549 32.1509 45.3669 31.6617 44.7632 31.6617H20.7439C20.1401 31.6617 19.6521 32.1509 19.6521 32.7535V38.7256C19.6521 47.5636 24.4723 55.6832 32.2306 59.9149C32.3932 60.0034 32.5734 60.0481 32.7535 60.0481C32.9337 60.0481 33.1138 60.0034 33.2765 59.9149C37.2626 57.7412 40.4659 54.5357 42.6451 50.7396L44.4596 52.5541C41.8317 56.6854 37.8489 60.3593 32.7535 63.1728Z" fill="url(#paint0_linear_1_5)"/>
<path d="M56.7728 38.2125H54.5892V40.396H56.7728V38.2125Z" fill="url(#paint1_linear_1_5)"/>
<path d="M61.1399 38.2125H58.9564V40.396H61.1399V38.2125Z" fill="url(#paint2_linear_1_5)"/>
<path d="M65.5071 38.2125H63.3235V40.396H65.5071V38.2125Z" fill="url(#paint3_linear_1_5)"/>
<path d="M61.1399 8.73428H58.9564V10.9178H61.1399V8.73428Z" fill="url(#paint4_linear_1_5)"/>
<path d="M65.5071 8.73428H63.3235V10.9178H65.5071V8.73428Z" fill="url(#paint5_linear_1_5)"/>
<path d="M63.3235 19.6521H50.6741L53.1775 17.1487L51.6337 15.6049L47.2666 19.972C46.8397 20.3989 46.8397 21.0889 47.2666 21.5158L51.6337 25.8829L53.1775 24.3391L50.6741 21.8357H63.3235V19.6521Z" fill="url(#paint6_linear_1_5)"/>
<path d="M58.6365 26.9747L57.0927 25.4309L52.7255 29.7981C52.2986 30.225 52.2986 30.915 52.7255 31.3419L57.0927 35.709L58.6365 34.1652L56.133 31.6617H65.5071V29.4782H56.133L58.6365 26.9747Z" fill="url(#paint7_linear_1_5)"/>
<path d="M45.0831 14.9651L46.6268 13.4213L44.1234 10.9178H56.7728V8.73427H44.1234L46.6268 6.23081L45.0831 4.68703L40.7159 9.05416C40.289 9.48105 40.289 10.1711 40.7159 10.5979L45.0831 14.9651Z" fill="url(#paint8_linear_1_5)"/>
<defs>
<linearGradient id="paint0_linear_1_5" x1="0" y1="0" x2="53.4974" y2="0" gradientUnits="userSpaceOnUse">
<stop stop-color="#00FF8F"/>
<stop offset="1" stop-color="#00A1FF"/>
</linearGradient>
<linearGradient id="paint1_linear_1_5" x1="54.5892" y1="38.2125" x2="56.7728" y2="38.2125" gradientUnits="userSpaceOnUse">
<stop stop-color="#00FF8F"/>
<stop offset="1" stop-color="#00A1FF"/>
</linearGradient>
<linearGradient id="paint2_linear_1_5" x1="58.9564" y1="38.2125" x2="61.1399" y2="38.2125" gradientUnits="userSpaceOnUse">
<stop stop-color="#00FF8F"/>
<stop offset="1" stop-color="#00A1FF"/>
</linearGradient>
<linearGradient id="paint3_linear_1_5" x1="63.3235" y1="38.2125" x2="65.5071" y2="38.2125" gradientUnits="userSpaceOnUse">
<stop stop-color="#00FF8F"/>
<stop offset="1" stop-color="#00A1FF"/>
</linearGradient>
<linearGradient id="paint4_linear_1_5" x1="58.9564" y1="8.73428" x2="61.1399" y2="8.73428" gradientUnits="userSpaceOnUse">
<stop stop-color="#00FF8F"/>
<stop offset="1" stop-color="#00A1FF"/>
</linearGradient>
<linearGradient id="paint5_linear_1_5" x1="63.3235" y1="8.73428" x2="65.5071" y2="8.73428" gradientUnits="userSpaceOnUse">
<stop stop-color="#00FF8F"/>
<stop offset="1" stop-color="#00A1FF"/>
</linearGradient>
<linearGradient id="paint6_linear_1_5" x1="46.9464" y1="15.6049" x2="63.3235" y2="15.6049" gradientUnits="userSpaceOnUse">
<stop stop-color="#00FF8F"/>
<stop offset="1" stop-color="#00A1FF"/>
</linearGradient>
<linearGradient id="paint7_linear_1_5" x1="52.4054" y1="25.4309" x2="65.5071" y2="25.4309" gradientUnits="userSpaceOnUse">
<stop stop-color="#00FF8F"/>
<stop offset="1" stop-color="#00A1FF"/>
</linearGradient>
<linearGradient id="paint8_linear_1_5" x1="40.3958" y1="4.68703" x2="56.7728" y2="4.68703" gradientUnits="userSpaceOnUse">
<stop stop-color="#00FF8F"/>
<stop offset="1" stop-color="#00A1FF"/>
</linearGradient>
</defs>
</svg>
