<svg width="2670" height="2817" viewBox="0 0 2670 2817" fill="none" xmlns="http://www.w3.org/2000/svg">
<path d="M2604.88 0H65.1219C29.1561 0 0 95.5271 0 213.366V2603.06C0 2720.9 29.1561 2816.43 65.1219 2816.43H2604.88C2640.84 2816.43 2670 2720.9 2670 2603.06V213.366C2670 95.5271 2640.84 0 2604.88 0Z" fill="#15284F"/>
<path d="M1899.42 2109.62L1776 1986.21C1834.73 1879.04 1866.66 1763.39 1866.66 1644.92V1631.88H1932.17V1566.37H1866.66V1271.59C1866.66 1253.51 1852.02 1238.84 1833.91 1238.84H1604.63V1042.32C1604.63 1024.24 1589.99 1009.56 1571.88 1009.56H1473.62V911.303C1473.62 640.398 1253.22 420 982.317 420C711.413 420 491.014 640.398 491.014 911.303V1009.56H392.754C374.641 1009.56 360 1024.24 360 1042.32V1271.59V1435.36V1599.13V1762.89V1926.66V2024.92C360 2115.22 433.466 2188.69 523.768 2188.69H1063.05C1136.65 2261.73 1225.28 2326.98 1327.21 2381.35C1332.03 2383.93 1337.3 2385.21 1342.61 2385.21C1347.91 2385.21 1353.19 2383.93 1358.03 2381.35C1523.34 2293.17 1653.67 2176.47 1741.18 2043.99L1853.1 2155.94H1735.65V2221.44H1932.17C1950.28 2221.44 1964.92 2206.77 1964.92 2188.69V1992.17H1899.42V2109.62ZM1801.16 1644.92C1801.16 1745.96 1775.48 1845.07 1727.72 1937.9L1670.67 1880.84C1705.91 1803.18 1727.89 1719.14 1733.91 1631.85H1801.16V1644.92ZM1670.14 1566.37H1342.61C1329.37 1566.37 1317.39 1574.37 1312.34 1586.58C1307.26 1598.83 1310.08 1612.92 1319.45 1622.28L1591.14 1893.97C1534.41 1999.28 1449.45 2089.02 1342.61 2151.12C1140.09 2033.44 1015.07 1816.94 1015.07 1581.8V1435.36H1670.14V1566.37ZM1421.67 1631.88H1668.08C1662.8 1701.22 1646.76 1768.4 1621.04 1831.22L1421.67 1631.88ZM556.521 911.303C556.521 676.526 747.54 485.507 982.317 485.507C1217.09 485.507 1408.11 676.526 1408.11 911.303V1009.56H1309.85V911.303C1309.85 730.7 1162.92 583.768 982.317 583.768C801.714 583.768 654.782 730.7 654.782 911.303V1009.56H556.521V911.303ZM1244.35 1009.56H720.289V911.303C720.289 766.827 837.841 649.275 982.317 649.275C1126.79 649.275 1244.35 766.827 1244.35 911.303V1009.56ZM425.507 1631.88H622.028V1730.14H425.507V1631.88ZM622.028 1566.37H425.507V1468.11H622.028V1566.37ZM425.507 1795.65H622.028V1893.91H425.507V1795.65ZM622.028 1402.61H425.507V1304.35H622.028V1402.61ZM523.768 2123.18C469.593 2123.18 425.507 2079.1 425.507 2024.92V1959.42H654.782C672.894 1959.42 687.535 1944.74 687.535 1926.66V1762.89V1599.13V1435.36V1271.59C687.535 1253.51 672.894 1238.84 654.782 1238.84H425.507V1075.07H1539.13V1238.84H851.303C833.19 1238.84 818.549 1253.51 818.549 1271.59V1644.92C818.549 1815.96 884.548 1981.26 1003.15 2123.18H523.768ZM1342.61 2315.18C1055.13 2156.4 884.057 1906.91 884.057 1644.92V1304.35H1801.16V1566.37H1735.65V1402.61C1735.65 1384.53 1721.01 1369.85 1702.89 1369.85H982.317C964.204 1369.85 949.564 1384.53 949.564 1402.61V1581.77C949.564 1846.91 1094.17 2090.5 1326.92 2217.45C1331.8 2220.1 1337.2 2221.44 1342.61 2221.44C1348.01 2221.44 1353.41 2220.1 1358.29 2217.45C1477.88 2152.24 1573.98 2056.07 1639.35 1942.19L1693.79 1996.62C1614.95 2120.56 1495.47 2230.78 1342.61 2315.18Z" fill="url(#paint0_linear_1_18)"/>
<path d="M2063.18 1566.37H1997.68V1631.88H2063.18V1566.37Z" fill="url(#paint1_linear_1_18)"/>
<path d="M2194.2 1566.37H2128.69V1631.88H2194.2V1566.37Z" fill="url(#paint2_linear_1_18)"/>
<path d="M2325.21 1566.37H2259.7V1631.88H2325.21V1566.37Z" fill="url(#paint3_linear_1_18)"/>
<path d="M2194.2 682.028H2128.69V747.535H2194.2V682.028Z" fill="url(#paint4_linear_1_18)"/>
<path d="M2325.21 682.028H2259.7V747.535H2325.21V682.028Z" fill="url(#paint5_linear_1_18)"/>
<path d="M2259.7 1009.56H1880.22L1955.33 934.46L1909.01 888.146L1778 1019.16C1765.19 1031.97 1765.19 1052.67 1778 1065.47L1909.01 1196.49L1955.33 1150.17L1880.22 1075.07H2259.7V1009.56Z" fill="url(#paint6_linear_1_18)"/>
<path d="M2119.09 1229.24L2072.78 1182.93L1941.77 1313.94C1928.96 1326.75 1928.96 1347.45 1941.77 1360.26L2072.78 1491.27L2119.09 1444.96L2043.99 1369.85H2325.21V1304.35H2043.99L2119.09 1229.24Z" fill="url(#paint7_linear_1_18)"/>
<path d="M1712.49 868.953L1758.81 822.639L1683.7 747.535H2063.18V682.028H1683.7L1758.81 606.924L1712.49 560.611L1581.48 691.625C1568.67 704.432 1568.67 725.132 1581.48 737.938L1712.49 868.953Z" fill="url(#paint8_linear_1_18)"/>
<defs>
<linearGradient id="paint0_linear_1_18" x1="360" y1="420" x2="1964.92" y2="420" gradientUnits="userSpaceOnUse">
<stop stop-color="#00FF8F"/>
<stop offset="1" stop-color="#00A1FF"/>
</linearGradient>
<linearGradient id="paint1_linear_1_18" x1="1997.68" y1="1566.37" x2="2063.18" y2="1566.37" gradientUnits="userSpaceOnUse">
<stop stop-color="#00FF8F"/>
<stop offset="1" stop-color="#00A1FF"/>
</linearGradient>
<linearGradient id="paint2_linear_1_18" x1="2128.69" y1="1566.37" x2="2194.2" y2="1566.37" gradientUnits="userSpaceOnUse">
<stop stop-color="#00FF8F"/>
<stop offset="1" stop-color="#00A1FF"/>
</linearGradient>
<linearGradient id="paint3_linear_1_18" x1="2259.7" y1="1566.37" x2="2325.21" y2="1566.37" gradientUnits="userSpaceOnUse">
<stop stop-color="#00FF8F"/>
<stop offset="1" stop-color="#00A1FF"/>
</linearGradient>
<linearGradient id="paint4_linear_1_18" x1="2128.69" y1="682.028" x2="2194.2" y2="682.028" gradientUnits="userSpaceOnUse">
<stop stop-color="#00FF8F"/>
<stop offset="1" stop-color="#00A1FF"/>
</linearGradient>
<linearGradient id="paint5_linear_1_18" x1="2259.7" y1="682.028" x2="2325.21" y2="682.028" gradientUnits="userSpaceOnUse">
<stop stop-color="#00FF8F"/>
<stop offset="1" stop-color="#00A1FF"/>
</linearGradient>
<linearGradient id="paint6_linear_1_18" x1="1768.39" y1="888.146" x2="2259.7" y2="888.146" gradientUnits="userSpaceOnUse">
<stop stop-color="#00FF8F"/>
<stop offset="1" stop-color="#00A1FF"/>
</linearGradient>
<linearGradient id="paint7_linear_1_18" x1="1932.16" y1="1182.93" x2="2325.21" y2="1182.93" gradientUnits="userSpaceOnUse">
<stop stop-color="#00FF8F"/>
<stop offset="1" stop-color="#00A1FF"/>
</linearGradient>
<linearGradient id="paint8_linear_1_18" x1="1571.87" y1="560.611" x2="2063.18" y2="560.611" gradientUnits="userSpaceOnUse">
<stop stop-color="#00FF8F"/>
<stop offset="1" stop-color="#00A1FF"/>
</linearGradient>
</defs>
</svg>
